<?xml version="1.0" encoding="utf-8"?>
<!-- Generator: Adobe Illustrator 22.1.0, SVG Export Plug-In . SVG Version: 6.00 Build 0)  -->
<svg version="1.1" id="Capa_1" xmlns="http://www.w3.org/2000/svg" xmlns:xlink="http://www.w3.org/1999/xlink" x="0px" y="0px"
	 viewBox="0 0 1417 1417" style="enable-background:new 0 0 1417 1417;" xml:space="preserve">
<style type="text/css">
	.st0{fill:#FFFFFF;}
</style>
<title>Iconos acercar</title>
<path class="st0" d="M1088.3,436.4C1015.6,184.3,752.2,38.7,500,111.5S102.4,447.7,175.1,699.9s336.1,397.7,588.2,324.9
	C1015.4,951.9,1161,688.6,1088.3,436.4z M736,929.7c-199.7,57.6-408.2-57.6-465.8-257.3s57.6-408.2,257.3-465.8
	s408.2,57.6,465.8,257.3C1050.8,663.6,935.7,872.1,736,929.7z"/>
<path class="st0" d="M1034.3,926c-29.8,37.5-68.7,69.3-112.7,95.4l250.5,285.9c11.4,12.9,31.3,14.3,44.5,3.2l65-54.8
	c13.2-11.2,14.7-30.8,3.4-43.7L1034.3,926z"/>
<path class="st0" d="M333.3,568.1L333.3,568.1c0-22.7,18.2-40.9,40.9-40.9h514.9c22.7,0,40.9,18.2,40.9,40.9l0,0
	c0,22.7-18.2,40.9-40.9,40.9H374.3C351.6,609.1,333.3,590.8,333.3,568.1z"/>
<path class="st0" d="M631.7,269.8L631.7,269.8c22.7,0,40.9,18.2,40.9,40.9v514.9c0,22.7-18.2,40.9-40.9,40.9l0,0
	c-22.7,0-40.9-18.2-40.9-40.9V310.7C590.8,288,609,269.8,631.7,269.8z"/>
</svg>
